<?xml version="1.0" encoding="utf-8"?>
<!-- Generator: Adobe Illustrator 27.8.1, SVG Export Plug-In . SVG Version: 6.00 Build 0)  -->
<svg version="1.1" id="Ebene_1" xmlns="http://www.w3.org/2000/svg" xmlns:xlink="http://www.w3.org/1999/xlink" x="0px" y="0px"
	 viewBox="0 0 646.38 687" style="enable-background:new 0 0 646.38 687;" xml:space="preserve">
<style type="text/css">
	.st0{fill:#8C9900;}
	.st1{fill:#27292B;}
</style>
<g id="XMLID_00000072960878099603524950000014952546265382276251_">
	<circle class="st0" cx="327.31" cy="331.24" r="300.2"/>
</g>
<g>
	<g id="XMLID_00000037650786744847789150000013951318939628545929_">
		<g id="XMLID_00000032626169685245207040000008800321839363359912_">
			<path id="XMLID_00000092449607640117009380000008251692955764230541_" class="st1" d="M297.05,294.43
				c-5.17,34.11-25.37,50.68-46.71,47.45c-21.33-3.23-35.72-25.04-30.56-59.16c5.17-34.11,27.53-64.93,48.86-61.7
				C289.99,224.26,302.22,260.31,297.05,294.43z"/>
			<path id="XMLID_00000016034290700092683360000016377963049238960051_" class="st1" d="M511.5,563.93
				c-10.15,17.2-40.66,30.5-60.24,39.8c16.04-33.26,28.62-74.24,40.94-108.68C503.01,512.25,523.68,543.26,511.5,563.93z"/>
			<path id="XMLID_00000155866649629191142350000016072128682531827331_" class="st1" d="M169.32,283.25
				c-38.37-18.48-51.17-70.85-41.64-116.91c-2.56,0.39-5.09,0.23-9.52,0.41c15.62-51.83,70.32-81.2,122.16-65.58
				c17.52,5.28,34.38,16.25,43.22,26.84C283.54,128.02,181.65,173.16,169.32,283.25z"/>
			<path id="XMLID_00000167380024015553522980000002968496845245748368_" class="st1" d="M544.43,260.69
				c-11.62,42.92-44.37,64.78-86.72,64.51c-6.47-0.04-12.97-0.72-19.5-2.09C478.59,222.63,395.41,152,395.41,152
				c23.85-19.55,57.28-28.09,89.09-19.26c0.7,0.18,1.37,0.38,2.06,0.59c36.27,10.93,61.53,40.98,68.1,75.82
				c-4.25,0.74-4.25,0.74-8.91,1.68C546.58,219.02,551.26,235.5,544.43,260.69z"/>
			<path id="XMLID_00000146481894341139287370000013554853727477532560_" class="st1" d="M568.69,392.86
				c-3.18,12.29-28.02,24.78-49.71,23.08c4.35-17.17,7.79-38.24,11.03-55.52C538.72,362.15,573.97,372.38,568.69,392.86z"/>
			<g id="XMLID_00000068641429618214730130000014165963351348814518_">
				<path id="XMLID_00000077305389854915324350000002267284186798958725_" class="st1" d="M257.89,498.32
					c-16.87-15.61-28.51-37.75-33.11-59.29c-13.28,13.12-42.85,46.89-44.22,88.71c-1.1,33.68,49.5,88.19,120.3,129.6
					c14.75,8.62,33.38,5.3,44.15-7.6c-1.45-8.58-7.95-43.18-22-67.85c-4.67-8.2-15.19-23.07-25.48-34.5
					c-1.75-1.94-1.59-4.93,0.35-6.67c1.94-1.75,4.92-1.58,6.67,0.35c10.85,12.05,21.63,27.31,26.67,36.15
					c3.49,6.13,6.52,12.76,9.14,19.43c14.15-22.36,27.27-44.8,39.36-67.51c-27.43,5.1-51.3,4.51-72.61-1.91
					C289.07,521.8,272.87,512.18,257.89,498.32z"/>
				<path id="XMLID_00000130614019285637065750000017673842365298627729_" class="st1" d="M238.23,393.3
					c-5.27,8.63-7.07,21.31-5.49,35.22c0.06,0.26,0.09,0.52,0.1,0.79c2.59,21.12,12.99,44.98,31.48,62.08
					c37.72,34.91,84.37,40.65,151.27,18.6c5.9-1.94,10.4-6.5,12.35-12.48c1.93-5.94,0.98-12.21-2.61-17.21l-0.28-0.38
					c-4.5-6.15-26.18-12.49-47.13-18.62c-19.36-5.66-39.37-11.51-54.63-19.12c-2.33-1.16-3.28-4-2.12-6.34
					c1.16-2.33,3.99-3.27,6.34-2.12c14.51,7.23,34.1,12.97,53.07,18.51c12.6,3.68,23.07,6.81,31.38,9.89
					c17.17-39.79,31.35-80.82,42.51-123.99l-19.45-5.86c-45.26,62.45-110.49,84.19-196.29,59.84
					C238.61,392.52,238.46,392.92,238.23,393.3z"/>
			</g>
		</g>
	</g>
	
		<ellipse transform="matrix(0.2928 -0.9562 0.9562 0.2928 -93.4208 372.2896)" class="st1" cx="204.97" cy="249.3" rx="27.89" ry="18.55"/>
	
		<ellipse transform="matrix(0.2928 -0.9562 0.9562 0.2928 -21.2309 514.5424)" class="st1" cx="337.23" cy="271.62" rx="27.89" ry="18.55"/>
</g>
</svg>
